<?xml version="1.0" standalone="no"?>
<!DOCTYPE svg PUBLIC "-//W3C//DTD SVG 20010904//EN"
 "http://www.w3.org/TR/2001/REC-SVG-20010904/DTD/svg10.dtd">
<svg version="1.0" xmlns="http://www.w3.org/2000/svg"
 width="283.000000pt" height="283.000000pt" viewBox="0 0 283.000000 283.000000"
 preserveAspectRatio="xMidYMid meet">
<metadata>
Created by potrace 1.11, written by Peter Selinger 2001-2013
</metadata>
<g transform="translate(0.000000,283.000000) scale(0.100000,-0.100000)"
fill="#000000" stroke="none">
<path d="M613 2198 l-248 -222 2 -81 c2 -71 15 -156 38 -247 l7 -28 -206 0
-206 0 72 -145 73 -145 191 0 192 0 56 -91 c31 -50 56 -93 56 -95 0 -2 -90 -4
-200 -4 l-200 0 75 -150 75 -150 250 0 251 0 111 -101 c114 -104 249 -212 352
-281 53 -37 60 -39 82 -27 54 28 276 203 386 303 l117 106 251 0 250 0 75 150
75 150 -200 0 c-110 0 -200 2 -200 4 0 2 25 45 56 95 l56 91 192 0 191 0 73
145 72 145 -206 0 -206 0 7 28 c23 91 36 176 38 247 l2 81 -248 222 -248 222
-554 0 -554 0 -248 -222z m1523 -84 l209 -187 -2 -69 c-4 -138 -69 -332 -170
-512 -138 -244 -389 -517 -674 -729 -42 -31 -79 -57 -84 -57 -5 0 -42 26 -84
57 -285 212 -536 485 -674 729 -101 180 -166 374 -170 512 l-2 69 209 187 208
186 513 0 513 0 208 -186z"/>
<path d="M783 1945 c3 -16 20 -131 38 -255 l33 -224 239 -276 c132 -151 243
-279 248 -285 5 -5 9 87 9 218 l0 227 -90 0 -90 0 0 94 0 95 -166 188 c-92
103 -180 202 -196 218 l-30 30 5 -30z"/>
<path d="M1852 1755 l-192 -216 0 -95 0 -94 -90 0 -90 0 0 -227 c0 -190 2
-225 13 -213 8 8 119 136 248 284 l234 270 37 245 c21 136 36 250 35 255 -2 4
-89 -89 -195 -209z"/>
<path d="M1340 1590 c-38 -77 -70 -142 -70 -145 0 -3 65 -5 145 -5 80 0 145 2
145 5 0 10 -140 285 -145 285 -3 0 -36 -63 -75 -140z"/>
</g>
</svg>
